<svg width="47" height="9" viewBox="0 0 47 9" fill="none" xmlns="http://www.w3.org/2000/svg">
<path fill-rule="evenodd" clip-rule="evenodd" d="M7 8.50027C7 8.77621 6.77621 9 6.50027 9C6.22379 9 6 8.77621 6 8.50027C6 8.22379 6.22379 8 6.50027 8C6.77621 8 7 8.22379 7 8.50027Z" fill="#CCFF2E"/>
<path fill-rule="evenodd" clip-rule="evenodd" d="M4 8.50027C4 8.77621 3.77621 9 3.50027 9C3.22379 9 3 8.77621 3 8.50027C3 8.22379 3.22379 8 3.50027 8C3.77621 8 4 8.22379 4 8.50027Z" fill="#CCFF2E"/>
<path fill-rule="evenodd" clip-rule="evenodd" d="M1 8.50027C1 8.77621 0.776209 9 0.500272 9C0.223791 9 0 8.77621 0 8.50027C0 8.22379 0.223791 8 0.500272 8C0.776209 8 1 8.22379 1 8.50027Z" fill="#CCFF2E"/>
<path fill-rule="evenodd" clip-rule="evenodd" d="M10 6.49973C10 6.77621 9.77621 7 9.50027 7C9.22379 7 9 6.77621 9 6.49973C9 6.22379 9.22379 6 9.50027 6C9.77621 6 10 6.22379 10 6.49973Z" fill="#CCFF2E"/>
<path fill-rule="evenodd" clip-rule="evenodd" d="M7 6.49973C7 6.77621 6.77621 7 6.50027 7C6.22379 7 6 6.77621 6 6.49973C6 6.22379 6.22379 6 6.50027 6C6.77621 6 7 6.22379 7 6.49973Z" fill="#CCFF2E"/>
<path fill-rule="evenodd" clip-rule="evenodd" d="M4 6.49973C4 6.77621 3.77621 7 3.50027 7C3.22379 7 3 6.77621 3 6.49973C3 6.22379 3.22379 6 3.50027 6C3.77621 6 4 6.22379 4 6.49973Z" fill="#CCFF2E"/>
<path fill-rule="evenodd" clip-rule="evenodd" d="M13 4.50027C13 4.77621 12.7761 5 12.5 5C12.2239 5 12 4.77621 12 4.50027C12 4.22379 12.2239 4 12.5 4C12.7761 4 13 4.22379 13 4.50027Z" fill="#CCFF2E"/>
<path fill-rule="evenodd" clip-rule="evenodd" d="M10 4.50027C10 4.77621 9.77621 5 9.50027 5C9.22379 5 9 4.77621 9 4.50027C9 4.22379 9.22379 4 9.50027 4C9.77621 4 10 4.22379 10 4.50027Z" fill="#CCFF2E"/>
<path fill-rule="evenodd" clip-rule="evenodd" d="M7 4.50027C7 4.77621 6.77621 5 6.50027 5C6.22379 5 6 4.77621 6 4.50027C6 4.22379 6.22379 4 6.50027 4C6.77621 4 7 4.22379 7 4.50027Z" fill="#CCFF2E"/>
<path fill-rule="evenodd" clip-rule="evenodd" d="M9.50027 3C9.22379 3 9 2.77609 9 2.5C9 2.22337 9.22379 2 9.50027 2C9.77621 2 10 2.22337 10 2.5C10 2.77609 9.77621 3 9.50027 3Z" fill="#CCFF2E"/>
<path fill-rule="evenodd" clip-rule="evenodd" d="M7 2.5C7 2.77609 6.77621 3 6.50027 3C6.22379 3 6 2.77609 6 2.5C6 2.22337 6.22379 2 6.50027 2C6.77621 2 7 2.22337 7 2.5Z" fill="#CCFF2E"/>
<path fill-rule="evenodd" clip-rule="evenodd" d="M4 2.5C4 2.77609 3.77621 3 3.50027 3C3.22379 3 3 2.77609 3 2.5C3 2.22337 3.22379 2 3.50027 2C3.77621 2 4 2.22337 4 2.5Z" fill="#CCFF2E"/>
<path fill-rule="evenodd" clip-rule="evenodd" d="M7 0.499728C7 0.776209 6.77621 1 6.50027 1C6.22379 1 6 0.776209 6 0.499728C6 0.223791 6.22379 0 6.50027 0C6.77621 0 7 0.223791 7 0.499728Z" fill="#CCFF2E"/>
<path fill-rule="evenodd" clip-rule="evenodd" d="M4 0.499728C4 0.776209 3.77621 1 3.50027 1C3.22379 1 3 0.776209 3 0.499728C3 0.223791 3.22379 0 3.50027 0C3.77621 0 4 0.223791 4 0.499728Z" fill="#CCFF2E"/>
<path fill-rule="evenodd" clip-rule="evenodd" d="M1 0.499728C1 0.776209 0.776209 1 0.500272 1C0.223791 1 0 0.776209 0 0.499728C0 0.223791 0.223791 0 0.500272 0C0.776209 0 1 0.223791 1 0.499728Z" fill="#CCFF2E"/>
<path fill-rule="evenodd" clip-rule="evenodd" d="M24 8.50027C24 8.77621 23.7762 9 23.5003 9C23.2238 9 23 8.77621 23 8.50027C23 8.22379 23.2238 8 23.5003 8C23.7762 8 24 8.22379 24 8.50027Z" fill="#CCFF2E"/>
<path fill-rule="evenodd" clip-rule="evenodd" d="M21 8.50027C21 8.77621 20.7762 9 20.5003 9C20.2238 9 20 8.77621 20 8.50027C20 8.22379 20.2238 8 20.5003 8C20.7762 8 21 8.22379 21 8.50027Z" fill="#CCFF2E"/>
<path fill-rule="evenodd" clip-rule="evenodd" d="M18 8.50027C18 8.77621 17.7762 9 17.5003 9C17.2238 9 17 8.77621 17 8.50027C17 8.22379 17.2238 8 17.5003 8C17.7762 8 18 8.22379 18 8.50027Z" fill="#CCFF2E"/>
<path fill-rule="evenodd" clip-rule="evenodd" d="M27 6.49973C27 6.77621 26.7762 7 26.5003 7C26.2238 7 26 6.77621 26 6.49973C26 6.22379 26.2238 6 26.5003 6C26.7762 6 27 6.22379 27 6.49973Z" fill="#CCFF2E"/>
<path fill-rule="evenodd" clip-rule="evenodd" d="M24 6.49973C24 6.77621 23.7762 7 23.5003 7C23.2238 7 23 6.77621 23 6.49973C23 6.22379 23.2238 6 23.5003 6C23.7762 6 24 6.22379 24 6.49973Z" fill="#CCFF2E"/>
<path fill-rule="evenodd" clip-rule="evenodd" d="M21 6.49973C21 6.77621 20.7762 7 20.5003 7C20.2238 7 20 6.77621 20 6.49973C20 6.22379 20.2238 6 20.5003 6C20.7762 6 21 6.22379 21 6.49973Z" fill="#CCFF2E"/>
<path fill-rule="evenodd" clip-rule="evenodd" d="M30 4.50027C30 4.77621 29.7761 5 29.5 5C29.2239 5 29 4.77621 29 4.50027C29 4.22379 29.2239 4 29.5 4C29.7761 4 30 4.22379 30 4.50027Z" fill="#CCFF2E"/>
<path fill-rule="evenodd" clip-rule="evenodd" d="M27 4.50027C27 4.77621 26.7762 5 26.5003 5C26.2238 5 26 4.77621 26 4.50027C26 4.22379 26.2238 4 26.5003 4C26.7762 4 27 4.22379 27 4.50027Z" fill="#CCFF2E"/>
<path fill-rule="evenodd" clip-rule="evenodd" d="M24 4.50027C24 4.77621 23.7762 5 23.5003 5C23.2238 5 23 4.77621 23 4.50027C23 4.22379 23.2238 4 23.5003 4C23.7762 4 24 4.22379 24 4.50027Z" fill="#CCFF2E"/>
<path fill-rule="evenodd" clip-rule="evenodd" d="M26.5003 3C26.2238 3 26 2.77609 26 2.5C26 2.22337 26.2238 2 26.5003 2C26.7762 2 27 2.22337 27 2.5C27 2.77609 26.7762 3 26.5003 3Z" fill="#CCFF2E"/>
<path fill-rule="evenodd" clip-rule="evenodd" d="M24 2.5C24 2.77609 23.7762 3 23.5003 3C23.2238 3 23 2.77609 23 2.5C23 2.22337 23.2238 2 23.5003 2C23.7762 2 24 2.22337 24 2.5Z" fill="#CCFF2E"/>
<path fill-rule="evenodd" clip-rule="evenodd" d="M21 2.5C21 2.77609 20.7762 3 20.5003 3C20.2238 3 20 2.77609 20 2.5C20 2.22337 20.2238 2 20.5003 2C20.7762 2 21 2.22337 21 2.5Z" fill="#CCFF2E"/>
<path fill-rule="evenodd" clip-rule="evenodd" d="M24 0.499728C24 0.776209 23.7762 1 23.5003 1C23.2238 1 23 0.776209 23 0.499728C23 0.223791 23.2238 0 23.5003 0C23.7762 0 24 0.223791 24 0.499728Z" fill="#CCFF2E"/>
<path fill-rule="evenodd" clip-rule="evenodd" d="M21 0.499728C21 0.776209 20.7762 1 20.5003 1C20.2238 1 20 0.776209 20 0.499728C20 0.223791 20.2238 0 20.5003 0C20.7762 0 21 0.223791 21 0.499728Z" fill="#CCFF2E"/>
<path fill-rule="evenodd" clip-rule="evenodd" d="M18 0.499728C18 0.776209 17.7762 1 17.5003 1C17.2238 1 17 0.776209 17 0.499728C17 0.223791 17.2238 0 17.5003 0C17.7762 0 18 0.223791 18 0.499728Z" fill="#CCFF2E"/>
<path fill-rule="evenodd" clip-rule="evenodd" d="M41 8.50027C41 8.77621 40.7762 9 40.5003 9C40.2238 9 40 8.77621 40 8.50027C40 8.22379 40.2238 8 40.5003 8C40.7762 8 41 8.22379 41 8.50027Z" fill="#CCFF2E"/>
<path fill-rule="evenodd" clip-rule="evenodd" d="M38 8.50027C38 8.77621 37.7762 9 37.5003 9C37.2238 9 37 8.77621 37 8.50027C37 8.22379 37.2238 8 37.5003 8C37.7762 8 38 8.22379 38 8.50027Z" fill="#CCFF2E"/>
<path fill-rule="evenodd" clip-rule="evenodd" d="M35 8.50027C35 8.77621 34.7762 9 34.5003 9C34.2238 9 34 8.77621 34 8.50027C34 8.22379 34.2238 8 34.5003 8C34.7762 8 35 8.22379 35 8.50027Z" fill="#CCFF2E"/>
<path fill-rule="evenodd" clip-rule="evenodd" d="M44 6.49973C44 6.77621 43.7762 7 43.5003 7C43.2238 7 43 6.77621 43 6.49973C43 6.22379 43.2238 6 43.5003 6C43.7762 6 44 6.22379 44 6.49973Z" fill="#CCFF2E"/>
<path fill-rule="evenodd" clip-rule="evenodd" d="M41 6.49973C41 6.77621 40.7762 7 40.5003 7C40.2238 7 40 6.77621 40 6.49973C40 6.22379 40.2238 6 40.5003 6C40.7762 6 41 6.22379 41 6.49973Z" fill="#CCFF2E"/>
<path fill-rule="evenodd" clip-rule="evenodd" d="M38 6.49973C38 6.77621 37.7762 7 37.5003 7C37.2238 7 37 6.77621 37 6.49973C37 6.22379 37.2238 6 37.5003 6C37.7762 6 38 6.22379 38 6.49973Z" fill="#CCFF2E"/>
<path fill-rule="evenodd" clip-rule="evenodd" d="M47 4.50027C47 4.77621 46.7761 5 46.5 5C46.2239 5 46 4.77621 46 4.50027C46 4.22379 46.2239 4 46.5 4C46.7761 4 47 4.22379 47 4.50027Z" fill="#CCFF2E"/>
<path fill-rule="evenodd" clip-rule="evenodd" d="M44 4.50027C44 4.77621 43.7762 5 43.5003 5C43.2238 5 43 4.77621 43 4.50027C43 4.22379 43.2238 4 43.5003 4C43.7762 4 44 4.22379 44 4.50027Z" fill="#CCFF2E"/>
<path fill-rule="evenodd" clip-rule="evenodd" d="M41 4.50027C41 4.77621 40.7762 5 40.5003 5C40.2238 5 40 4.77621 40 4.50027C40 4.22379 40.2238 4 40.5003 4C40.7762 4 41 4.22379 41 4.50027Z" fill="#CCFF2E"/>
<path fill-rule="evenodd" clip-rule="evenodd" d="M43.5003 3C43.2238 3 43 2.77609 43 2.5C43 2.22337 43.2238 2 43.5003 2C43.7762 2 44 2.22337 44 2.5C44 2.77609 43.7762 3 43.5003 3Z" fill="#CCFF2E"/>
<path fill-rule="evenodd" clip-rule="evenodd" d="M41 2.5C41 2.77609 40.7762 3 40.5003 3C40.2238 3 40 2.77609 40 2.5C40 2.22337 40.2238 2 40.5003 2C40.7762 2 41 2.22337 41 2.5Z" fill="#CCFF2E"/>
<path fill-rule="evenodd" clip-rule="evenodd" d="M38 2.5C38 2.77609 37.7762 3 37.5003 3C37.2238 3 37 2.77609 37 2.5C37 2.22337 37.2238 2 37.5003 2C37.7762 2 38 2.22337 38 2.5Z" fill="#CCFF2E"/>
<path fill-rule="evenodd" clip-rule="evenodd" d="M41 0.499728C41 0.776209 40.7762 1 40.5003 1C40.2238 1 40 0.776209 40 0.499728C40 0.223791 40.2238 0 40.5003 0C40.7762 0 41 0.223791 41 0.499728Z" fill="#CCFF2E"/>
<path fill-rule="evenodd" clip-rule="evenodd" d="M38 0.499728C38 0.776209 37.7762 1 37.5003 1C37.2238 1 37 0.776209 37 0.499728C37 0.223791 37.2238 0 37.5003 0C37.7762 0 38 0.223791 38 0.499728Z" fill="#CCFF2E"/>
<path fill-rule="evenodd" clip-rule="evenodd" d="M35 0.499728C35 0.776209 34.7762 1 34.5003 1C34.2238 1 34 0.776209 34 0.499728C34 0.223791 34.2238 0 34.5003 0C34.7762 0 35 0.223791 35 0.499728Z" fill="#CCFF2E"/>
</svg>
