<?xml version="1.0" encoding="UTF-8"?>
<svg width="20px" height="21px" viewBox="0 0 20 21" version="1.1" xmlns="http://www.w3.org/2000/svg" xmlns:xlink="http://www.w3.org/1999/xlink">
    <title>Group 2</title>
    <g id="Page-1" stroke="none" stroke-width="1" fill="none" fill-rule="evenodd">
        <g id="Group-2" transform="translate(0.000000, 0.454545)">
            <circle id="Oval" fill="#4229FF" cx="10" cy="10" r="10"></circle>
            <path d="M8.07573064,14.1176471 L8.07573064,13.8667101 C7.83266504,13.8362935 7.65036584,13.7830645 7.52883304,13.707023 C7.40730024,13.6309815 7.32627837,13.507414 7.28576743,13.3363207 C7.2452565,13.1652273 7.22114285,12.9218945 7.21342648,12.6063223 L7.11378201,6.87114534 L11.8374602,14.1176471 L13.214832,14.1176471 L13.2900666,7.38227147 C13.2939247,7.07430341 13.3161093,6.83572321 13.3566202,6.66653088 C13.3971312,6.49733855 13.4752594,6.37472163 13.5910049,6.29868014 C13.7067504,6.22263864 13.8822978,6.16560752 14.1176471,6.12758677 L14.1176471,5.88235294 L11.9184821,5.88235294 L11.9184821,6.13328988 C12.1654059,6.16370648 12.3486696,6.21693553 12.4682733,6.29297702 C12.587877,6.36901852 12.6688989,6.49163544 12.7113389,6.66082777 C12.753779,6.8300201 12.7769281,7.07430341 12.7807862,7.39367769 L12.8919858,12.4268786 L8.63130916,5.88235294 L5.99809847,5.88235294 L5.99809847,6.12758677 C6.20258223,6.16940959 6.36173232,6.22453968 6.47554876,6.29297702 C6.58936519,6.36141437 6.66749342,6.45551572 6.70993345,6.57528108 C6.75237347,6.69504644 6.77359349,6.8556841 6.77359349,7.05719407 L6.70414617,12.6177285 C6.70414617,12.9256966 6.6838907,13.1642768 6.64337977,13.3334691 C6.60286884,13.5026615 6.52474061,13.6252784 6.40899508,13.7013199 C6.29324956,13.7773614 6.11770218,13.8343925 5.88235294,13.8724132 L5.88235294,14.1176471 L8.07573064,14.1176471 Z" id="N" fill="#FFFFFF" fill-rule="nonzero"></path>
        </g>
    </g>
</svg>